<?xml version="1.0" standalone="no"?>
<!DOCTYPE svg PUBLIC "-//W3C//DTD SVG 20010904//EN"
 "http://www.w3.org/TR/2001/REC-SVG-20010904/DTD/svg10.dtd">
<svg version="1.0" xmlns="http://www.w3.org/2000/svg"
 width="512.000000pt" height="512.000000pt" viewBox="0 0 512.000000 512.000000"
 preserveAspectRatio="xMidYMid meet">
<metadata>
Created by potrace 1.11, written by Peter Selinger 2001-2013
</metadata>
<g transform="translate(0.000000,512.000000) scale(0.100000,-0.100000)"
fill="#000000" stroke="none">
<path d="M3160 5109 c-127 -16 -156 -20 -245 -40 -426 -94 -764 -295 -1043
-620 -92 -107 -81 -91 -158 -209 -71 -109 -160 -275 -189 -355 -10 -27 -22
-54 -25 -60 -13 -19 -72 -201 -100 -312 -60 -231 -97 -516 -96 -730 1 -98 2
-103 30 -132 51 -54 112 -62 176 -25 44 27 58 78 64 239 8 185 12 224 52 440
40 224 149 521 256 698 47 78 126 196 137 207 4 3 31 34 61 70 227 266 543
454 891 528 84 18 127 25 234 38 45 5 267 5 292 0 12 -3 48 -7 81 -11 55 -5
248 -52 302 -73 14 -5 30 -11 35 -13 6 -2 46 -21 90 -42 255 -124 447 -321
579 -590 30 -62 66 -145 81 -186 54 -154 106 -398 120 -564 2 -29 7 -83 10
-122 11 -131 4 -545 -10 -595 -2 -8 -7 -44 -10 -80 -3 -36 -8 -76 -10 -90 -8
-63 -36 -226 -45 -263 -5 -23 -12 -57 -15 -75 -27 -154 -145 -521 -230 -718
-285 -655 -683 -1045 -1162 -1139 -75 -15 -294 -22 -344 -11 -13 3 -42 8 -64
11 -139 19 -329 105 -416 187 -106 99 -159 218 -159 352 0 132 42 237 127 324
69 69 145 104 240 110 64 4 79 1 135 -25 95 -45 165 -123 234 -262 48 -98 74
-122 138 -124 77 -2 129 51 130 131 0 87 -112 289 -216 389 -181 175 -464 209
-703 85 -140 -73 -275 -239 -319 -393 -26 -89 -28 -98 -30 -209 -6 -220 61
-394 209 -545 148 -151 329 -238 595 -287 89 -16 355 -18 448 -3 388 64 694
253 1002 621 102 122 248 358 344 556 113 236 248 620 283 807 2 14 6 28 8 31
2 4 7 22 10 41 3 19 14 77 25 129 11 52 22 118 26 145 3 28 8 53 10 56 1 3 6
43 9 90 4 46 8 86 10 89 2 3 7 50 12 105 15 184 8 663 -13 768 -2 11 -6 43 -9
71 -8 68 -61 318 -81 381 -81 257 -165 427 -295 600 -242 324 -574 515 -1024
591 -110 18 -371 25 -475 13z"/>
<path d="M3465 4716 c-208 -67 -379 -212 -505 -426 -96 -163 -263 -595 -388
-1005 -17 -55 -68 -219 -112 -365 -45 -146 -93 -301 -106 -345 -53 -173 -169
-508 -231 -665 -292 -739 -624 -1121 -1048 -1205 -16 -4 -69 -8 -117 -10 -413
-17 -689 226 -689 605 0 56 2 104 5 109 3 4 8 22 11 39 17 98 84 241 158 337
106 139 252 236 391 259 76 13 76 13 177 2 54 -7 74 -5 103 9 84 40 102 147
36 217 -44 48 -215 69 -356 44 -372 -64 -682 -397 -773 -829 -29 -134 -23
-328 14 -452 99 -335 383 -560 760 -602 293 -32 564 39 805 212 93 68 250 226
333 337 218 292 412 712 612 1325 76 235 91 281 195 618 121 393 268 824 324
950 8 17 28 63 46 104 91 209 156 302 279 399 56 45 95 64 171 88 25 7 59 27
75 44 27 28 30 38 30 95 0 59 -3 67 -30 94 -41 40 -84 45 -170 17z"/>
</g>
</svg>
