<?xml version="1.0" encoding="UTF-8" standalone="no"?>
<!-- Created with Inkscape (http://www.inkscape.org/) -->

<svg
   xmlns:dc="http://purl.org/dc/elements/1.1/"
   xmlns:cc="http://creativecommons.org/ns#"
   xmlns:rdf="http://www.w3.org/1999/02/22-rdf-syntax-ns#"
   xmlns:svg="http://www.w3.org/2000/svg"
   xmlns="http://www.w3.org/2000/svg"
   xmlns:sodipodi="http://sodipodi.sourceforge.net/DTD/sodipodi-0.dtd"
   xmlns:inkscape="http://www.inkscape.org/namespaces/inkscape"
   width="2.20732mm"
   height="2.20732mm"
   viewBox="0 0 2.20732 2.20732"
   version="1.1"
   id="svg994"
   inkscape:version="0.92.5 (2060ec1f9f, 2020-04-08)"
   sodipodi:docname="favicon.svg"
   inkscape:export-filename="C:\Users\nt0ny\development\www-dmtp\src\assets\images\favicon.png"
   inkscape:export-xdpi="5891.6694"
   inkscape:export-ydpi="5891.6694">
  <defs
     id="defs988" />
  <sodipodi:namedview
     id="base"
     pagecolor="#ffffff"
     bordercolor="#666666"
     borderopacity="1.0"
     inkscape:pageopacity="0.0"
     inkscape:pageshadow="2"
     inkscape:zoom="5.6"
     inkscape:cx="-33.027127"
     inkscape:cy="-3.5592138"
     inkscape:document-units="mm"
     inkscape:current-layer="layer1"
     showgrid="false"
     fit-margin-top="0"
     fit-margin-left="0"
     fit-margin-right="0"
     fit-margin-bottom="0"
     inkscape:window-width="2400"
     inkscape:window-height="1284"
     inkscape:window-x="2391"
     inkscape:window-y="-9"
     inkscape:window-maximized="1" />
  <metadata
     id="metadata991">
    <rdf:RDF>
      <cc:Work
         rdf:about="">
        <dc:format>image/svg+xml</dc:format>
        <dc:type
           rdf:resource="http://purl.org/dc/dcmitype/StillImage" />
        <dc:title></dc:title>
      </cc:Work>
    </rdf:RDF>
  </metadata>
  <g
     inkscape:label="Layer 1"
     inkscape:groupmode="layer"
     id="layer1"
     transform="translate(-106.25251,-155.28919)">
    <g
       transform="matrix(0.3527778,0,0,0.3527778,93.063124,86.932196)"
       id="g221"
       style="fill:#000000;fill-opacity:1">
      <g
         id="use219"
         style="fill:#000000"
         transform="matrix(0.26458333,0,0,0.26458333,37.387245,199.49774)">
        <path
           inkscape:connector-curvature="0"
           style="fill:#000000;stroke:none"
           d="m 23.414063,-11.898438 c 0,-5.507812 -2.285157,-9.492187 -7.734375,-9.757812 -5.949219,0 -9.613282,4.570312 -9.671875,11.019531 0,0.351563 0.292968,0.613281 0.613281,0.613281 0.351562,0 0.617187,-0.261718 0.617187,-0.613281 0.058594,-5.628906 3.105469,-9.789062 8.441407,-9.789062 4.65625,0.234375 6.503906,3.691406 6.503906,8.527343 0,5.304688 -2.695313,12.660157 -7.796875,12.660157 -1.84375,0 -3.632813,-0.8515628 -3.632813,-2.609375 0,-1.113282 0.820313,-1.992188 1.789063,-1.992188 0.761719,0 1.375,0.703125 1.699219,1.523438 0.08594,0.265625 0.320312,0.410156 0.585937,0.410156 0.410156,0 0.675781,-0.4375 0.558594,-0.820313 -0.472656,-1.375 -1.46875,-2.34375 -2.84375,-2.34375 -1.613281,0 -3.019531,1.320313 -3.019531,3.222657 0,2.375 2.082031,3.839844 4.863281,3.839844 5.832031,0 9.027344,-7.707032 9.027344,-13.890626 z m -8.734375,-5.15625 c 0.324218,-0.703125 1.117187,-1.464843 1.789062,-1.582031 0.234375,-0.05859 0.5,-0.265625 0.5,-0.703125 -0.05859,-0.382812 -0.324219,-0.617187 -0.734375,-0.527344 -1.144531,0.292969 -2.082031,1.113282 -2.667969,2.226563 -0.820312,1.609375 -1.492187,3.78125 -2.167968,6.035156 -1.375,4.484375 -3.046875,10.402344 -7.148438,10.402344 -1.640625,0 -3.019531,-0.964844 -3.019531,-2.78125 C 1.230469,-5.683594 2.636719,-7.5 4.25,-7.5 c 0.175781,0 0.320313,0.027344 0.46875,0.058594 0.410156,0.085937 0.789063,-0.207032 0.789063,-0.617188 0,-0.265625 -0.175782,-0.5 -0.4375,-0.585937 C 4.777344,-8.734375 4.511719,-8.761719 4.21875,-8.761719 1.992188,-8.761719 0,-6.476563 0,-3.925781 0,-1.523438 1.875,0.03125 4.277344,0.03125 c 4.867187,0 6.683594,-6.007813 8.292969,-11.285156 0.675781,-2.167969 1.320312,-4.277344 2.109375,-5.800782 z m 0,0"
           id="path1549" />
      </g>
    </g>
  </g>
</svg>
